HIERARCHY
ROOT Hips
{
	OFFSET 0.000000 0.000000 0.000000
	CHANNELS 6 Xposition Yposition Zposition Xrotation Yrotation Zrotation
	JOINT C_ctrl
	{
		OFFSET 0.000000 35.040482 -0.000011
		CHANNELS 3 Xrotation Yrotation Zrotation
		JOINT Bip01
		{
			OFFSET -41.537640 41.789009 -0.000007
			CHANNELS 3 Xrotation Yrotation Zrotation
			JOINT Bip01_Pelvis
			{
				OFFSET -2.462887 0.000000 0.000000
				CHANNELS 3 Xrotation Yrotation Zrotation
				JOINT BN_Tail_01
				{
					OFFSET -11.399368 7.351341 -0.000013
					CHANNELS 3 Xrotation Yrotation Zrotation
					JOINT BN_Tail_02
					{
						OFFSET -11.365196 -0.343025 0.000012
						CHANNELS 3 Xrotation Yrotation Zrotation
						JOINT BN_Tail_03
						{
							OFFSET -15.076256 -0.454979 0.000017
							CHANNELS 3 Xrotation Yrotation Zrotation
							JOINT BN_Tail_04
							{
								OFFSET -17.395691 -0.525002 0.000016
								CHANNELS 3 Xrotation Yrotation Zrotation
								JOINT BN_Tail_05
								{
									OFFSET -16.699837 -0.504005 0.000016
									CHANNELS 3 Xrotation Yrotation Zrotation
									End Site
									{
										OFFSET 0.503998 -16.699829 0.000067
									}
								}
							}
						}
					}
				}
				JOINT Bip01_Spine
				{
					OFFSET 8.297798 5.916809 -0.000020
					CHANNELS 3 Xrotation Yrotation Zrotation
					JOINT Bip01_R_Thigh
					{
						OFFSET -8.297779 -5.916794 10.541781
						CHANNELS 3 Xrotation Yrotation Zrotation
						JOINT Bip01_R_Calf
						{
							OFFSET 5.631542 -22.906792 0.862690
							CHANNELS 3 Xrotation Yrotation Zrotation
							JOINT Bip01_R_HorseLink
							{
								OFFSET -16.984341 -19.231926 -3.555767
								CHANNELS 3 Xrotation Yrotation Zrotation
								JOINT Bip01_R_Foot
								{
									OFFSET 4.290367 -24.783146 0.578056
									CHANNELS 3 Xrotation Yrotation Zrotation
									JOINT Bip01_R_Toe0
									{
										OFFSET 3.561211 -5.815116 0.760802
										CHANNELS 3 Xrotation Yrotation Zrotation
										JOINT Bip01_R_Toe0Nub
										{
											OFFSET 16.135469 0.002017 1.534789
											CHANNELS 3 Xrotation Yrotation Zrotation
											End Site
											{
												OFFSET -0.000002 16.208284 -0.000056
											}
										}
									}
								}
							}
						}
					}
					JOINT Bip01_L_Thigh
					{
						OFFSET -8.297813 -5.916832 -10.541739
						CHANNELS 3 Xrotation Yrotation Zrotation
						JOINT Bip01_L_Calf
						{
							OFFSET 5.631535 -22.906792 -0.862625
							CHANNELS 3 Xrotation Yrotation Zrotation
							JOINT Bip01_L_HorseLink
							{
								OFFSET -16.984318 -19.231949 3.555875
								CHANNELS 3 Xrotation Yrotation Zrotation
								JOINT Bip01_L_Foot
								{
									OFFSET 4.290367 -24.783169 -0.577965
									CHANNELS 3 Xrotation Yrotation Zrotation
									JOINT Bip01_L_Toe0
									{
										OFFSET 3.561245 -5.815111 -0.760799
										CHANNELS 3 Xrotation Yrotation Zrotation
										JOINT Bip01_L_Toe0Nub
										{
											OFFSET 6.574303 -0.000005 -1.538561
											CHANNELS 3 Xrotation Yrotation Zrotation
											End Site
											{
												OFFSET 0.000004 -6.751935 0.000023
											}
										}
									}
								}
							}
						}
					}
					JOINT Bip01_Spine1
					{
						OFFSET 20.556803 -4.626213 -0.000025
						CHANNELS 3 Xrotation Yrotation Zrotation
						JOINT Saddle
						{
							OFFSET 17.608810 18.174690 -0.000143
							CHANNELS 3 Xrotation Yrotation Zrotation
							End Site
							{
								OFFSET -0.000063 -0.000061 -22.448387
							}
						}
						JOINT BN_center
						{
							OFFSET 10.743275 -13.417107 -0.172041
							CHANNELS 3 Xrotation Yrotation Zrotation
							End Site
							{
								OFFSET 22.434088 0.553078 -0.579614
							}
						}
						JOINT Bip01_Spine2
						{
							OFFSET 24.765072 -2.054115 -0.000032
							CHANNELS 3 Xrotation Yrotation Zrotation
							JOINT Handle
							{
								OFFSET 63.735676 16.430748 -16.052464
								CHANNELS 3 Xrotation Yrotation Zrotation
								JOINT IK_Chain01
								{
									OFFSET -4.713058 -6.020439 0.185448
									CHANNELS 3 Xrotation Yrotation Zrotation
									End Site
									{
										OFFSET -0.000023 -0.000023 -7.648071
									}
								}
							}
							JOINT BN_hair04_01
							{
								OFFSET 1.987491 16.256981 -2.049672
								CHANNELS 3 Xrotation Yrotation Zrotation
								JOINT BN_hair04_02
								{
									OFFSET -1.318762 -3.831451 -6.174704
									CHANNELS 3 Xrotation Yrotation Zrotation
									JOINT BN_hair04_03
									{
										OFFSET -0.827490 -5.886627 -5.656666
										CHANNELS 3 Xrotation Yrotation Zrotation
										End Site
										{
											OFFSET -2.658262 5.010620 -5.929780
										}
									}
								}
							}
							JOINT Bip01_Neck
							{
								OFFSET 25.574577 9.433014 -0.000084
								CHANNELS 3 Xrotation Yrotation Zrotation
								JOINT Bip01_R_Clavicle
								{
									OFFSET -16.535652 0.011192 6.705692
									CHANNELS 3 Xrotation Yrotation Zrotation
									JOINT Bip01_R_UpperArm
									{
										OFFSET 20.272621 -12.959984 2.510816
										CHANNELS 3 Xrotation Yrotation Zrotation
										JOINT Bip01_R_Forearm
										{
											OFFSET -13.633509 -15.503704 -0.653585
											CHANNELS 3 Xrotation Yrotation Zrotation
											JOINT Bip01_R_Hand
											{
												OFFSET 2.580030 -27.804676 -1.136415
												CHANNELS 3 Xrotation Yrotation Zrotation
												JOINT Bip01_R_Finger0
												{
													OFFSET -0.281744 -19.659061 -0.398649
													CHANNELS 3 Xrotation Yrotation Zrotation
													JOINT Bip01_Xtra02
													{
														OFFSET 4.152210 -5.712314 0.433813
														CHANNELS 3 Xrotation Yrotation Zrotation
														JOINT Bip01_Xtra02Nub
														{
															OFFSET 15.457960 0.041654 0.507982
															CHANNELS 3 Xrotation Yrotation Zrotation
															End Site
															{
																OFFSET -15.421730 -0.157725 -1.163459
															}
														}
													}
													JOINT Bip01_R_Finger0Nub
													{
														OFFSET 8.362326 -9.718440 -0.143142
														CHANNELS 3 Xrotation Yrotation Zrotation
														End Site
														{
															OFFSET -1.213036 -0.198171 9.872291
														}
													}
												}
											}
										}
									}
								}
								JOINT Bip01_L_Clavicle
								{
									OFFSET -16.535673 0.011162 -6.705583
									CHANNELS 3 Xrotation Yrotation Zrotation
									JOINT Bip01_L_UpperArm
									{
										OFFSET 20.272615 -12.959999 -2.510836
										CHANNELS 3 Xrotation Yrotation Zrotation
										JOINT Bip01_L_Forearm
										{
											OFFSET -13.633495 -15.503681 0.653678
											CHANNELS 3 Xrotation Yrotation Zrotation
											JOINT Bip01_L_Hand
											{
												OFFSET 2.579988 -27.804686 1.136487
												CHANNELS 3 Xrotation Yrotation Zrotation
												JOINT Bip01_L_Finger0
												{
													OFFSET -0.281765 -19.659058 0.398696
													CHANNELS 3 Xrotation Yrotation Zrotation
													JOINT Bip01_Xtra01
													{
														OFFSET 4.083549 -5.738758 -0.666714
														CHANNELS 3 Xrotation Yrotation Zrotation
														JOINT Bip01_Xtra01Nub
														{
															OFFSET 6.758158 -0.395525 -0.023239
															CHANNELS 3 Xrotation Yrotation Zrotation
															End Site
															{
																OFFSET 6.764923 -0.254147 -0.029908
															}
														}
													}
													JOINT Bip01_L_Finger0Nub
													{
														OFFSET -0.012636 -9.629153 0.045740
														CHANNELS 3 Xrotation Yrotation Zrotation
														End Site
														{
															OFFSET 0.988407 0.004791 8.293357
														}
													}
												}
											}
										}
									}
								}
								JOINT BN_hair03_01
								{
									OFFSET -5.894140 16.270622 -2.498433
									CHANNELS 3 Xrotation Yrotation Zrotation
									JOINT BN_hair03_02
									{
										OFFSET -0.189278 -7.800507 -6.219162
										CHANNELS 3 Xrotation Yrotation Zrotation
										JOINT BN_hair03_03
										{
											OFFSET 0.612345 -10.844475 -3.370718
											CHANNELS 3 Xrotation Yrotation Zrotation
											End Site
											{
												OFFSET -2.273296 2.862007 -10.769416
											}
										}
									}
								}
								JOINT Bip01_Neck1
								{
									OFFSET 9.383755 11.908699 -0.000007
									CHANNELS 3 Xrotation Yrotation Zrotation
									JOINT BN_hair02_01
									{
										OFFSET 9.126320 18.808022 -1.420810
										CHANNELS 3 Xrotation Yrotation Zrotation
										JOINT BN_hair02_02
										{
											OFFSET 0.393478 -5.181091 -5.248574
											CHANNELS 3 Xrotation Yrotation Zrotation
											JOINT BN_hair02_03
											{
												OFFSET 0.762280 -8.167076 -0.230047
												CHANNELS 3 Xrotation Yrotation Zrotation
												End Site
												{
													OFFSET -0.025837 -1.251419 -8.109770
												}
											}
										}
									}
									JOINT Bip01_Head
									{
										OFFSET 14.266129 10.475403 -0.000008
										CHANNELS 3 Xrotation Yrotation Zrotation
										JOINT BN_Reins_01
										{
											OFFSET 18.547455 -15.740112 -0.000035
											CHANNELS 3 Xrotation Yrotation Zrotation
											JOINT BN_Reins_02
											{
												OFFSET -5.372810 -5.884506 0.000028
												CHANNELS 3 Xrotation Yrotation Zrotation
												JOINT BN_Reins_03
												{
													OFFSET -6.395866 -15.947449 0.000070
													CHANNELS 3 Xrotation Yrotation Zrotation
													JOINT BN_Halter_R_01
													{
														OFFSET -1.234055 -3.096100 7.096737
														CHANNELS 3 Xrotation Yrotation Zrotation
														End Site
														{
															OFFSET 10.514435 -4.176861 -0.000004
														}
													}
													JOINT BN_Halter_L_01
													{
														OFFSET -1.234062 -3.096146 -7.096726
														CHANNELS 3 Xrotation Yrotation Zrotation
														End Site
														{
															OFFSET -10.514435 4.176865 -0.000000
														}
													}
													JOINT BN_Reins_04
													{
														OFFSET -6.737644 -16.971684 0.000074
														CHANNELS 3 Xrotation Yrotation Zrotation
														JOINT BN_Halter_R_02
														{
															OFFSET -4.688869 -11.781956 7.096771
															CHANNELS 3 Xrotation Yrotation Zrotation
															End Site
															{
																OFFSET 14.669624 -5.827511 -0.000006
															}
														}
														JOINT BN_Halter_L_02
														{
															OFFSET -4.688892 -11.782017 -7.096693
															CHANNELS 3 Xrotation Yrotation Zrotation
															End Site
															{
																OFFSET -14.669624 5.827507 -0.000002
															}
														}
														JOINT BN_Reins_05
														{
															OFFSET -6.822578 -16.971161 0.000074
															CHANNELS 3 Xrotation Yrotation Zrotation
															JOINT BN_Reins_06
															{
																OFFSET -6.140354 -15.095148 0.000066
																CHANNELS 3 Xrotation Yrotation Zrotation
																End Site
																{
																	OFFSET -15.095150 6.140352 -0.000002
																}
															}
														}
													}
												}
											}
										}
										JOINT BN_hair01_01
										{
											OFFSET 8.957344 8.870956 0.112121
											CHANNELS 3 Xrotation Yrotation Zrotation
											JOINT BN_hair01_02
											{
												OFFSET 6.002075 -2.962952 -3.121264
												CHANNELS 3 Xrotation Yrotation Zrotation
												End Site
												{
													OFFSET 5.917702 3.813591 -2.232396
												}
											}
										}
										JOINT BN_Eyebrow_R
										{
											OFFSET 11.795959 -0.430496 4.449781
											CHANNELS 3 Xrotation Yrotation Zrotation
											JOINT Bip01_Xtra06Nub
											{
												OFFSET 2.936661 -0.262573 3.246701
												CHANNELS 3 Xrotation Yrotation Zrotation
												End Site
												{
													OFFSET 2.768745 0.208199 3.394807
												}
											}
										}
										JOINT BN_Eyebrow_L
										{
											OFFSET 11.586395 -0.445618 -4.441728
											CHANNELS 3 Xrotation Yrotation Zrotation
											JOINT Bip01_Xtra05Nub
											{
												OFFSET 3.244698 -0.349442 -4.416700
												CHANNELS 3 Xrotation Yrotation Zrotation
												End Site
												{
													OFFSET 3.053162 0.072495 -4.564033
												}
											}
										}
										JOINT Bip01_R_Ear_01
										{
											OFFSET 7.142960 7.567184 4.311657
											CHANNELS 3 Xrotation Yrotation Zrotation
											JOINT Bip01_Xtra04Nub
											{
												OFFSET 9.464531 9.264214 1.682953
												CHANNELS 3 Xrotation Yrotation Zrotation
												End Site
												{
													OFFSET 8.448181 10.159340 1.910823
												}
											}
										}
										JOINT Bip01__L_Ear_01
										{
											OFFSET 7.214943 7.717056 -4.356771
											CHANNELS 3 Xrotation Yrotation Zrotation
											JOINT Bip01_Xtra03Nub
											{
												OFFSET 9.230225 8.944366 -2.322746
												CHANNELS 3 Xrotation Yrotation Zrotation
												End Site
												{
													OFFSET 8.170288 9.841324 -2.643566
												}
											}
										}
										JOINT Bip01_Jaw
										{
											OFFSET 9.196068 -4.110695 -0.000013
											CHANNELS 3 Xrotation Yrotation Zrotation
											JOINT Bip01_Ponytail1Nub
											{
												OFFSET 10.976463 -21.082108 -0.000053
												CHANNELS 3 Xrotation Yrotation Zrotation
												End Site
												{
													OFFSET 11.247093 -20.938980 0.000113
												}
											}
										}
										JOINT Bip01_HeadNub
										{
											OFFSET 29.954575 -18.249489 -0.000063
											CHANNELS 3 Xrotation Yrotation Zrotation
											End Site
											{
												OFFSET -9.198448 -13.366348 0.000168
											}
										}
									}
								}
							}
						}
					}
				}
			}
		}
	}
}
MOTION
Frames: 5
Frame Time: 0.033333
0.000000 0.000000 0.000000 0.000008 0.000000 -0.000000 -0.000000 0.000000 -0.000000 -0.030073 -1.997909 -0.873219 0.003491 0.000000 -0.000008 2.490286 -2.052268 38.057370 0.122414 -0.319542 23.183612 -0.264686 0.672097 18.335236 -0.250525 1.429659 8.407999 -0.077032 1.792566 0.347453 0.188866 0.989328 4.708707 -0.554958 11.332958 1.500611 0.710435 0.016570 -3.600290 1.817468 -0.046723 -9.218987 0.005278 -10.440080 7.768435 0.000729 -0.000020 -0.003715 0.000101 -0.000138 0.000004 -1.482122 -9.974719 -5.465473 0.137293 0.008365 0.696711 -2.612784 0.160116 -13.287726 0.324647 11.281694 14.325162 -0.000871 0.000007 -0.003712 -0.008661 0.000479 -0.038577 0.119445 0.980781 -3.268229 0.917530 -0.020778 6.784382 -0.004093 -0.188111 0.020280 0.046598 0.968706 -2.738189 0.000078 -0.000112 -0.000055 -0.000045 -0.014955 0.015042 2.586093 0.486203 -0.860323 2.162858 0.324626 -0.693857 5.503387 0.833517 -1.788405 1.647461 -1.257478 -5.213291 0.138936 1.717664 6.348464 -5.504139 -4.790366 7.348343 0.012096 0.173985 -4.253293 7.829369 2.444210 -0.221270 -4.304852 4.320583 -2.303701 -0.004997 -0.003857 0.005722 -0.781886 0.140346 -0.478788 -0.804180 0.123450 -0.482658 -3.312803 0.806981 4.950344 4.736870 -0.552708 5.774722 -0.000525 -0.014428 -0.352247 -6.486397 2.302563 -1.749641 2.565140 -5.569913 -1.494710 -0.003803 0.003226 -0.002349 0.028240 0.072136 2.451900 -0.000913 0.100573 2.451955 3.753988 0.408872 -0.665174 0.180328 0.040143 -0.039223 0.361758 0.049970 -0.142500 -2.153291 1.227663 -6.809127 4.517663 0.450485 -0.104924 0.032884 0.001587 0.029277 1.110113 0.094907 -0.097121 -0.533802 0.201136 -5.651392 -0.000030 0.000324 33.480078 -0.441787 -0.458728 -72.796108 -0.000060 -0.000072 -21.993988 0.000020 -0.000008 -0.026805 0.000002 -0.000016 0.012747 -0.000096 -0.000109 -34.639871 0.000036 0.000015 0.015163 0.000025 -0.000010 0.012721 -0.000048 -0.000055 -24.223450 0.000013 -0.000013 -0.000050 1.147033 2.856878 2.039560 0.761001 -0.149092 1.574647 -12.810611 -1.803844 -16.140973 0.024340 -0.030006 11.786775 9.655020 0.978694 -14.662685 0.023231 -0.032330 11.715986 -0.003757 0.001479 -0.000270 0.050289 0.015070 11.755979 0.000899 -0.000263 -0.001560 0.050153 0.014733 11.743119 -0.000019 -0.000231 0.000065 -0.002003 -0.023998 11.750674 0.000071 -0.000033 11.750683 
0.000000 0.000000 0.000000 0.000008 0.000000 -0.000000 -0.000000 0.000000 -0.000000 -0.031274 -1.997895 -0.943700 -0.002387 -0.127762 -0.007014 2.593969 -2.125045 38.163416 0.126597 -0.336967 23.213069 -0.287408 0.733538 18.324665 -0.262236 1.475497 8.383035 -0.124218 1.934584 0.183780 0.166134 1.065171 4.683962 -0.541157 11.378661 1.616317 0.708851 0.016584 -3.592268 1.834268 -0.048523 -9.304559 0.003567 -10.447628 7.824754 0.000729 -0.000018 -0.003715 0.000101 -0.000137 0.000004 -1.429093 -9.863311 -5.416003 0.149613 0.009196 0.759250 -2.633479 0.163842 -13.394178 0.324565 11.213920 14.424989 -0.000871 0.000006 -0.003712 -0.008661 0.000480 -0.038577 0.219461 0.998315 -3.240868 0.917530 -0.020778 6.784382 -0.004102 -0.188111 0.020280 -0.010283 0.996986 -2.695234 0.000078 -0.000112 -0.000056 -0.000045 -0.014955 0.015042 2.774644 0.515205 -0.923364 2.118366 0.318021 -0.679693 5.232301 0.798457 -1.700180 1.676949 -1.105670 -5.012708 -0.014075 1.559654 6.313879 -5.363564 -4.812833 7.071703 0.011897 0.172108 -4.207271 7.842558 2.431174 -0.101946 -4.322292 4.316378 -2.186238 0.008648 -0.003093 -0.174730 -0.781886 0.140347 -0.478788 -0.804180 0.123449 -0.482658 -3.330395 0.677655 4.667942 4.763837 -0.578964 5.471331 0.000320 0.011120 0.270938 -6.537286 2.332284 -1.962459 2.546782 -5.573054 -1.636617 -0.027327 0.012073 0.013873 0.028240 0.072136 2.451899 -0.000913 0.100573 2.451956 4.613172 0.755758 -1.011787 0.058197 0.027003 -0.018904 0.236524 0.025329 -0.090136 -2.119697 1.277899 -6.388929 4.597089 0.555243 -0.175659 -0.009366 -0.001977 0.038023 0.902673 0.080363 -0.066562 -0.645637 0.194126 -6.203815 -0.000030 0.000324 33.480074 -0.441787 -0.458728 -72.796108 -0.000060 -0.000072 -21.993993 0.000020 -0.000008 -0.026803 0.000002 -0.000016 0.012747 -0.000096 -0.000109 -34.639875 0.000036 0.000015 0.015163 0.000025 -0.000010 0.012721 -0.000048 -0.000055 -24.223450 0.000013 -0.000013 -0.000048 1.224406 2.834816 2.205393 0.706294 -0.135877 1.455084 -12.806283 -1.805003 -16.141889 0.024346 -0.030005 11.786774 9.847330 1.206006 -14.820431 0.023232 -0.032329 11.715987 -0.121580 0.100659 -0.395960 0.050289 0.015070 11.755971 -0.249758 0.057583 -0.427743 0.050155 0.014733 11.743123 0.001876 -0.001627 0.069096 -0.002003 -0.023998 11.750678 0.000071 -0.000033 11.750675 
0.000000 0.000000 0.000000 0.000008 0.000000 -0.000000 -0.000000 0.000000 -0.000000 -0.030211 -1.997883 -1.022842 -0.000532 -0.255447 -0.010230 2.696886 -2.199447 38.263939 0.133895 -0.381469 23.298007 -0.346438 0.895038 18.294156 -0.298919 1.604082 8.311054 -0.170094 2.073963 0.023366 0.146813 1.132490 4.659693 -0.541395 11.439259 1.744461 0.706529 0.016602 -3.580502 1.852148 -0.050471 -9.395644 0.000205 -10.451826 7.889906 0.000729 -0.000020 -0.003715 0.000101 -0.000136 0.000004 -1.370933 -9.745780 -5.352341 0.161695 0.010025 0.820601 -2.656526 0.168036 -13.512769 0.324605 11.147460 14.522850 -0.000871 0.000005 -0.003712 -0.008661 0.000479 -0.038577 0.327060 1.010323 -3.217559 0.917530 -0.020778 6.784383 -0.004116 -0.188111 0.020281 -0.069452 1.021234 -2.659937 0.000078 -0.000112 -0.000057 -0.000045 -0.014955 0.015042 2.959605 0.543433 -0.985254 1.989939 0.298968 -0.638880 4.966512 0.763676 -1.613833 1.717726 -0.934519 -4.776089 -0.186072 1.381823 6.241572 -5.210045 -4.826264 6.743739 0.011435 0.167717 -4.099623 7.854130 2.418125 0.109957 -4.350238 4.315603 -1.978091 0.021965 -0.002372 -0.351699 -0.781886 0.140346 -0.478788 -0.804180 0.123449 -0.482657 -3.353795 0.530093 4.344145 4.791531 -0.599240 5.141471 0.000937 0.039922 0.973294 -6.596965 2.367249 -2.214350 2.524529 -5.572745 -1.782597 -0.050412 0.020598 0.029787 0.028240 0.072136 2.451900 -0.000913 0.100573 2.451955 5.444436 1.048549 -1.331726 -0.284285 -0.010088 0.037918 0.113769 0.001050 -0.038816 -2.084390 1.339041 -5.956116 4.675064 0.657831 -0.245224 -0.120423 -0.012987 0.058607 0.699261 0.065995 -0.036643 -0.775806 0.186918 -6.784705 -0.000030 0.000324 33.480074 -0.441787 -0.458728 -72.796108 -0.000060 -0.000071 -21.993984 0.000019 -0.000008 -0.026803 0.000002 -0.000016 0.012747 -0.000097 -0.000109 -34.639871 0.000036 0.000015 0.015163 0.000026 -0.000010 0.012718 -0.000048 -0.000055 -24.223450 0.000013 -0.000013 -0.000044 1.300313 2.813375 2.368036 0.652673 -0.122805 1.337846 -12.802039 -1.806123 -16.142785 0.024342 -0.030010 11.786775 10.036510 1.428452 -14.975888 0.023231 -0.032328 11.715982 -0.253424 0.218415 -0.857215 0.050289 0.015071 11.755973 -0.531665 0.120616 -0.917543 0.050153 0.014733 11.743125 0.003737 -0.002993 0.136771 -0.002003 -0.023998 11.750678 0.000071 -0.000033 11.750669 
0.000000 0.000000 0.000000 0.000008 0.000000 -0.000000 -0.000000 0.000000 -0.000000 -0.031705 -1.997892 -1.107964 -0.000975 -0.380661 -0.016860 2.802187 -2.278007 38.360108 0.152237 -0.456140 23.433933 -0.445522 1.153885 18.246780 -0.360804 1.812368 8.200597 -0.216033 2.214841 -0.138546 0.123803 1.200710 4.638775 -0.535373 11.496737 1.885339 0.704971 0.016611 -3.572598 1.872361 -0.052705 -9.498638 -0.003027 -10.459622 7.959196 0.000729 -0.000019 -0.003715 0.000101 -0.000137 0.000004 -1.307414 -9.620068 -5.275893 0.173896 0.010876 0.882548 -2.682600 0.172842 -13.646984 0.321942 11.069238 14.640779 -0.000871 0.000007 -0.003712 -0.008661 0.000480 -0.038577 0.443232 1.024674 -3.194119 0.917530 -0.020778 6.784382 -0.004145 -0.188112 0.020281 -0.129091 1.038748 -2.638311 0.000078 -0.000112 -0.000056 -0.000045 -0.014955 0.015042 3.146400 0.571753 -1.047863 1.790414 0.269157 -0.575532 4.698164 0.728146 -1.526788 1.767521 -0.740601 -4.507476 -0.370520 1.179978 6.139412 -5.045046 -4.835343 6.365008 0.010790 0.161444 -3.945868 7.860447 2.397775 0.406174 -4.388416 4.311504 -1.683854 0.035401 -0.001604 -0.530431 -0.781886 0.140346 -0.478788 -0.804180 0.123450 -0.482657 -3.387736 0.362860 3.982352 4.823390 -0.616622 4.786021 0.001210 0.071922 1.753447 -6.664447 2.402262 -2.500738 2.497546 -5.579449 -1.936784 -0.073933 0.029375 0.045899 0.028240 0.072136 2.451900 -0.000913 0.100574 2.451955 6.260309 1.299183 -1.622248 -0.830322 -0.068240 0.124933 -0.343513 -0.086802 0.125597 -2.051597 1.408291 -5.501482 4.773513 0.744394 -0.302867 -0.316887 -0.033131 0.091847 0.493854 0.051377 -0.006483 -0.924513 0.176441 -7.399053 -0.000030 0.000324 33.480078 -0.441787 -0.458728 -72.796108 -0.000059 -0.000071 -21.993988 0.000020 -0.000008 -0.026803 0.000002 -0.000016 0.012747 -0.000096 -0.000109 -34.639868 0.000036 0.000015 0.015165 0.000025 -0.000010 0.012721 -0.000048 -0.000055 -24.223452 0.000013 -0.000013 -0.000053 1.377048 2.791959 2.532323 0.598555 -0.109487 1.219476 -12.797750 -1.807276 -16.143690 0.024346 -0.030010 11.786778 10.228211 1.652551 -15.133638 0.023230 -0.032325 11.715985 -0.396834 0.359575 -1.377353 0.050289 0.015071 11.755978 -0.837946 0.182885 -1.471960 0.050155 0.014734 11.743117 0.005617 -0.004371 0.205132 -0.002003 -0.023997 11.750675 0.000072 -0.000033 11.750669 
0.000000 0.000000 0.000000 0.000008 0.000000 -0.000000 -0.000000 0.000000 -0.000000 -0.030679 -1.997924 -1.193638 0.001559 -0.507410 -0.023462 2.908655 -2.357192 38.457278 0.174402 -0.559988 23.618681 -0.577287 1.507199 18.186051 -0.440307 2.096320 8.047206 -0.262024 2.357247 -0.301938 0.100611 1.269614 4.615893 -0.527292 11.554588 2.036312 0.702615 0.016632 -3.560667 1.893503 -0.055082 -9.606378 -0.005731 -10.470964 8.029319 0.000729 -0.000020 -0.003715 0.000101 -0.000140 0.000004 -1.239867 -9.487612 -5.189178 0.185737 0.011714 0.942669 -2.708931 0.177759 -13.782578 0.319424 10.990242 14.759839 -0.000871 0.000005 -0.003712 -0.008661 0.000480 -0.038577 0.566890 1.034499 -3.170503 0.917530 -0.020778 6.784383 -0.004203 -0.188100 0.020280 -0.185795 1.052862 -2.620071 0.000078 -0.000112 -0.000057 -0.000045 -0.014955 0.015042 3.334960 0.600117 -1.111078 1.517859 0.228077 -0.489160 3.945535 0.625608 -1.284072 1.820115 -0.534453 -4.209693 -0.569034 0.961995 6.015317 -4.870781 -4.838048 5.951939 0.010018 0.153706 -3.756258 7.864982 2.371753 0.761116 -4.437153 4.308532 -1.329807 0.045903 -0.002039 -0.675266 -0.781886 0.140346 -0.478788 -0.804180 0.123449 -0.482657 -3.426988 0.181217 3.588099 4.857557 -0.634277 4.415010 0.001016 0.106413 2.594344 -6.740102 2.446961 -2.811998 2.465938 -5.582728 -2.099598 -0.097530 0.038148 0.062125 0.028240 0.072136 2.451899 -0.000913 0.100573 2.451955 7.062854 1.509328 -1.887363 -1.552570 -0.148683 0.243296 -0.805013 -0.176850 0.290917 -2.016605 1.480808 -5.031863 4.886797 0.820066 -0.353119 -0.516142 -0.053658 0.125519 0.286429 0.036506 0.023915 -1.085388 0.166990 -8.047801 -0.000030 0.000324 33.480078 -0.441787 -0.458728 -72.796108 -0.000060 -0.000072 -21.993991 0.000020 -0.000008 -0.026803 0.000002 -0.000016 0.012745 -0.000096 -0.000109 -34.639875 0.000036 0.000015 0.015160 0.000026 -0.000010 0.012720 -0.000048 -0.000055 -24.223450 0.000013 -0.000013 -0.000051 1.467309 2.768783 2.724058 0.543932 -0.095933 1.099961 -12.793403 -1.808406 -16.144604 0.024342 -0.030009 11.786776 10.447354 1.923188 -15.316867 0.023229 -0.032332 11.715986 -0.549859 0.517265 -1.942844 0.050290 0.015071 11.755975 -1.167078 0.254648 -2.073180 0.050155 0.014732 11.743123 0.007771 -0.007405 0.286248 -0.002003 -0.023998 11.750682 0.000071 -0.000033 11.750670 
